<?xml version="1.0" encoding="UTF-8" standalone="no"?>
<svg width="43px" height="45px" viewBox="0 0 43 45" version="1.1" xmlns="http://www.w3.org/2000/svg" xmlns:xlink="http://www.w3.org/1999/xlink" xmlns:sketch="http://www.bohemiancoding.com/sketch/ns">
    <!-- Generator: Sketch 3.3.3 (12081) - http://www.bohemiancoding.com/sketch -->
    <title>Fill 26</title>
    <desc>Created with Sketch.</desc>
    <defs></defs>
    <g id="Page-1" stroke="none" stroke-width="1" fill="none" fill-rule="evenodd" sketch:type="MSPage">
        <g id="iPhone-6" sketch:type="MSArtboardGroup" transform="translate(-86.000000, -311.000000)" fill="rgba(255, 255, 255, 0.75)">
            <path d="M128.244,343.822949 C127.992,343.574949 127.602,343.533949 127.304,343.727949 C123.968,345.908949 120.081,347.062949 116.063,347.062949 C104.711,347.062949 95.477,337.828949 95.477,326.479949 C95.477,321.167949 97.502,316.119949 101.181,312.267949 C101.425,312.012949 101.457,311.620949 101.259,311.328949 C101.061,311.036949 100.687,310.921949 100.357,311.054949 C91.636,314.571949 86,322.937949 86,332.366949 C86,345.045949 96.315,355.360949 108.994,355.360949 C116.71,355.360949 124.126,351.299949 128.345,344.761949 C128.537,344.464949 128.495,344.072949 128.244,343.822949 L128.244,343.822949 Z M108.994,353.860949 C97.142,353.860949 87.5,344.218949 87.5,332.366949 C87.5,324.705949 91.479,317.796949 97.872,313.960949 C95.341,317.623949 93.977,321.962949 93.977,326.479949 C93.977,338.655949 103.884,348.562949 116.063,348.562949 C119.163,348.562949 122.191,347.921949 124.98,346.690949 C120.921,351.177949 115.056,353.860949 108.994,353.860949 L108.994,353.860949 Z" id="Fill-26" sketch:type="MSShapeGroup"></path>
        </g>
    </g>
</svg>
