<?xml version="1.0" encoding="UTF-8" standalone="no"?>
<svg width="47px" height="31px" viewBox="0 0 47 31" version="1.1" xmlns="http://www.w3.org/2000/svg" xmlns:xlink="http://www.w3.org/1999/xlink" xmlns:sketch="http://www.bohemiancoding.com/sketch/ns">
    <!-- Generator: Sketch 3.3.3 (12081) - http://www.bohemiancoding.com/sketch -->
    <title>Fill 14</title>
    <desc>Created with Sketch.</desc>
    <defs></defs>
    <g id="Page-1" stroke="none" stroke-width="1" fill="none" fill-rule="evenodd" sketch:type="MSPage">
        <g id="iPhone-6" sketch:type="MSArtboardGroup" transform="translate(-204.000000, -319.000000)" fill="rgba(255, 255, 255, 0.75)">
            <path d="M244.934,331.16 C244.939,331.033 244.942,330.906 244.942,330.777 C244.942,324.283 239.658,319 233.163,319 C229.231,319 225.555,320.985 223.378,324.229 C221.896,323.233 220.139,322.692 218.349,322.692 C213.551,322.692 209.618,326.467 209.367,331.279 C206.091,332.83 204,336.203 204,340.01 C204,345.293 208.094,349.592 213.125,349.592 L241.436,349.592 C246.466,349.592 250.558,345.293 250.558,340.01 C250.558,336.119 248.321,332.634 244.934,331.16 L244.934,331.16 Z M241.436,348.092 L213.125,348.092 C208.921,348.092 205.5,344.466 205.5,340.01 C205.5,336.694 207.464,333.663 210.388,332.468 C210.67,332.353 210.851,331.994 210.851,331.69 C210.851,327.555 214.215,324.192 218.349,324.192 C220.077,324.192 221.768,324.797 223.11,325.897 C223.281,326.036 223.505,326.098 223.722,326.054 C223.938,326.014 224.127,325.88 224.236,325.689 C226.066,322.488 229.487,320.5 233.163,320.5 C238.831,320.5 243.442,325.11 243.442,330.777 C243.442,331.056 243.428,331.327 243.406,331.597 C243.379,331.934 243.581,332.247 243.899,332.361 C246.985,333.477 249.058,336.551 249.058,340.01 C249.058,344.466 245.639,348.092 241.436,348.092 L241.436,348.092 Z" id="Fill-14" sketch:type="MSShapeGroup"></path>
        </g>
    </g>
</svg>
