<?xml version="1.0" encoding="UTF-8" standalone="no"?>
<svg width="43px" height="33px" viewBox="0 0 43 33" version="1.1" xmlns="http://www.w3.org/2000/svg" xmlns:xlink="http://www.w3.org/1999/xlink" xmlns:sketch="http://www.bohemiancoding.com/sketch/ns">
    <!-- Generator: Sketch 3.3.3 (12081) - http://www.bohemiancoding.com/sketch -->
    <title>Fill 2</title>
    <desc>Created with Sketch.</desc>
    <defs></defs>
    <g id="Page-1" stroke="none" stroke-width="1" fill="none" fill-rule="evenodd" sketch:type="MSPage">
        <g id="iPhone-6" sketch:type="MSArtboardGroup" transform="translate(-145.000000, -370.000000)" fill="rgba(255, 255, 255, 0.75)">
            <path d="M186.75,400.673 L145.787,400.673 C145.373,400.673 145.037,401.009 145.037,401.423 C145.037,401.837 145.373,402.173 145.787,402.173 L186.75,402.173 C187.163,402.173 187.5,401.837 187.5,401.423 C187.5,401.009 187.163,400.673 186.75,400.673 L186.75,400.673 Z M145.787,390.857 C146.201,390.857 146.537,390.521 146.537,390.107 C146.537,387.119 148.305,384.388 150.938,383.313 C151.219,383.198 151.403,382.847 151.403,382.542 C151.403,378.822 154.43,375.794 158.151,375.794 C159.707,375.794 161.23,376.339 162.436,377.328 C162.608,377.467 162.826,377.527 163.049,377.485 C163.266,377.445 163.454,377.311 163.563,377.12 C165.212,374.233 168.299,372.439 171.62,372.439 C176.734,372.439 180.895,376.6 180.895,381.714 C180.895,381.964 180.881,382.209 180.863,382.45 C180.833,382.787 181.036,383.101 181.354,383.216 C184.133,384.223 186,386.993 186,390.107 C186,390.521 186.336,390.857 186.75,390.857 C187.163,390.857 187.5,390.521 187.5,390.107 C187.5,386.561 185.469,383.38 182.389,382.017 C182.392,381.916 182.395,381.816 182.395,381.714 C182.395,375.773 177.561,370.939 171.62,370.939 C168.041,370.939 164.699,372.73 162.704,375.665 C161.359,374.776 159.77,374.294 158.151,374.294 C153.764,374.294 150.168,377.734 149.918,382.125 C146.98,383.544 145.037,386.689 145.037,390.107 C145.037,390.521 145.373,390.857 145.787,390.857 L145.787,390.857 Z M186.75,396.722 L145.787,396.722 C145.373,396.722 145.037,397.058 145.037,397.472 C145.037,397.886 145.373,398.222 145.787,398.222 L186.75,398.222 C187.163,398.222 187.5,397.886 187.5,397.472 C187.5,397.058 187.163,396.722 186.75,396.722 L186.75,396.722 Z M186.75,392.769 L145.787,392.769 C145.373,392.769 145.037,393.105 145.037,393.519 C145.037,393.933 145.373,394.269 145.787,394.269 L186.75,394.269 C187.163,394.269 187.5,393.933 187.5,393.519 C187.5,393.105 187.163,392.769 186.75,392.769 L186.75,392.769 Z" id="Fill-2" sketch:type="MSShapeGroup"></path>
        </g>
    </g>
</svg>
