<?xml version="1.0" encoding="UTF-8" standalone="no"?>
<svg width="40px" height="42px" viewBox="0 0 40 42" version="1.1" xmlns="http://www.w3.org/2000/svg" xmlns:xlink="http://www.w3.org/1999/xlink" xmlns:sketch="http://www.bohemiancoding.com/sketch/ns">
    <!-- Generator: Sketch 3.3.3 (12081) - http://www.bohemiancoding.com/sketch -->
    <title>Fill 10</title>
    <desc>Created with Sketch.</desc>
    <defs></defs>
    <g id="Page-1" stroke="none" stroke-width="1" fill="none" fill-rule="evenodd" sketch:type="MSPage">
        <g id="iPhone-6" sketch:type="MSArtboardGroup" transform="translate(-261.000000, -361.000000)" fill="rgba(255, 255, 255, 0.75)">
            <path d="M278.613,371.103 C276.871,371.062 275.197,371.703 273.928,372.912 C272.657,374.122 271.935,375.754 271.892,377.507 C271.884,377.921 272.211,378.265 272.626,378.274 L272.643,378.274 C273.049,378.274 273.383,377.95 273.392,377.542 C273.425,376.189 273.982,374.932 274.962,373.998 C275.941,373.064 277.225,372.565 278.577,372.603 C280.487,372.648 282.182,373.755 283.001,375.489 C283.177,375.863 283.624,376.024 283.999,375.848 C284.373,375.671 284.534,375.224 284.357,374.849 C283.295,372.598 281.094,371.163 278.613,371.103 L278.613,371.103 Z M278.671,368.731 L278.688,368.731 C279.095,368.731 279.428,368.407 279.438,368 L279.58,362.17 C279.59,361.756 279.261,361.411 278.847,361.401 C278.458,361.391 278.09,361.719 278.08,362.133 L277.938,367.963 C277.928,368.377 278.256,368.722 278.671,368.731 L278.671,368.731 Z M286.408,373.588 C286.541,373.847 286.803,373.995 287.076,373.995 C287.191,373.995 287.308,373.969 287.418,373.912 L292.606,371.25 C292.975,371.062 293.121,370.609 292.931,370.24 C292.743,369.872 292.29,369.726 291.922,369.916 L286.733,372.578 C286.364,372.767 286.22,373.219 286.408,373.588 L286.408,373.588 Z M283.334,370.176 C283.461,370.259 283.602,370.298 283.743,370.298 C283.988,370.298 284.228,370.178 284.372,369.957 L287.555,365.07 C287.782,364.724 287.683,364.259 287.336,364.033 C286.991,363.806 286.524,363.904 286.299,364.252 L283.115,369.139 C282.888,369.485 282.987,369.95 283.334,370.176 L283.334,370.176 Z M273.365,369.388 C273.499,369.647 273.761,369.796 274.034,369.796 C274.149,369.796 274.265,369.77 274.376,369.713 C274.744,369.524 274.889,369.072 274.701,368.704 L272.041,363.515 C271.851,363.145 271.4,362.999 271.03,363.189 C270.662,363.378 270.516,363.83 270.705,364.198 L273.365,369.388 L273.365,369.388 Z M262.922,378.042 L268.752,378.183 L268.771,378.183 C269.177,378.183 269.51,377.858 269.52,377.451 C269.53,377.036 269.203,376.692 268.788,376.683 L262.958,376.542 C262.544,376.543 262.2,376.859 262.189,377.273 C262.179,377.689 262.508,378.032 262.922,378.042 L262.922,378.042 Z M295.713,386.867 C295.715,386.793 295.716,386.719 295.716,386.643 C295.716,381.255 291.331,376.87 285.942,376.87 C282.724,376.87 279.714,378.471 277.9,381.097 C276.689,380.315 275.269,379.892 273.821,379.892 C269.85,379.892 266.591,382.995 266.343,386.965 C263.655,388.271 261.945,391.057 261.945,394.196 C261.945,398.595 265.355,402.173 269.549,402.173 L292.71,402.173 C296.901,402.173 300.312,398.595 300.312,394.196 C300.312,390.992 298.485,388.117 295.713,386.867 L295.713,386.867 Z M292.71,400.673 L269.549,400.673 C266.183,400.673 263.445,397.768 263.445,394.196 C263.445,391.538 265.018,389.109 267.36,388.152 C267.642,388.037 267.824,387.694 267.824,387.39 C267.824,384.082 270.514,381.392 273.821,381.392 C275.206,381.392 276.559,381.876 277.632,382.755 C277.803,382.895 278.027,382.956 278.243,382.912 C278.461,382.872 278.649,382.738 278.759,382.547 C280.229,379.971 282.982,378.37 285.942,378.37 C290.505,378.37 294.216,382.082 294.216,386.643 C294.216,386.864 294.205,387.083 294.187,387.297 C294.158,387.635 294.36,387.95 294.679,388.065 C297.151,388.96 298.812,391.424 298.812,394.196 C298.812,397.768 296.075,400.673 292.71,400.673 L292.71,400.673 Z M265.041,369.82 L269.928,373.004 C270.053,373.087 270.195,373.126 270.337,373.126 C270.582,373.126 270.821,373.006 270.965,372.785 C271.191,372.439 271.093,371.974 270.746,371.748 L265.859,368.564 C265.513,368.337 265.047,368.437 264.821,368.783 C264.595,369.13 264.693,369.595 265.041,369.82 L265.041,369.82 Z" id="Fill-10" sketch:type="MSShapeGroup"></path>
        </g>
    </g>
</svg>
