<?xml version="1.0" encoding="UTF-8" standalone="no"?>
<svg width="35px" height="44px" viewBox="0 0 35 44" version="1.1" xmlns="http://www.w3.org/2000/svg" xmlns:xlink="http://www.w3.org/1999/xlink" xmlns:sketch="http://www.bohemiancoding.com/sketch/ns">
    <!-- Generator: Sketch 3.3.3 (12081) - http://www.bohemiancoding.com/sketch -->
    <title>Fill 25</title>
    <desc>Created with Sketch.</desc>
    <defs></defs>
    <g id="Page-1" stroke="none" stroke-width="1" fill="none" fill-rule="evenodd" sketch:type="MSPage">
        <g id="iPhone-6" sketch:type="MSArtboardGroup" transform="translate(-151.000000, -311.000000)" fill="rgba(255, 255, 255, 0.75)">
            <path d="M153.376598,332.854208 C153.867598,333.115208 154.417598,333.253208 154.966598,333.253208 C155.298598,333.253208 155.629598,333.204208 155.948598,333.106208 C156.811598,332.846208 157.521598,332.264208 157.948598,331.466208 C158.431598,330.560208 158.347598,328.507208 158.210598,326.307208 L158.154598,325.281208 C158.141598,325.019208 157.992598,324.782208 157.760598,324.658208 C157.528598,324.531208 157.248598,324.539208 157.022598,324.673208 L156.135598,325.195208 C154.149598,326.353208 152.467598,327.383208 151.988598,328.279208 C151.110598,329.921208 151.732598,331.972208 153.376598,332.854208 L153.376598,332.854208 Z M153.310598,328.986208 C153.611598,328.424208 155.674598,327.201208 156.724598,326.589208 C156.794598,327.729208 156.929598,330.189208 156.625598,330.760208 C156.388598,331.202208 155.994598,331.525208 155.512598,331.671208 C155.033598,331.817208 154.524598,331.766208 154.083598,331.530208 C153.169598,331.040208 152.822598,329.899208 153.310598,328.986208 L153.310598,328.986208 Z M179.153598,319.282208 C179.644598,319.545208 180.196598,319.685208 180.746598,319.685208 C181.078598,319.685208 181.408598,319.635208 181.728598,319.538208 C182.593598,319.276208 183.303598,318.694208 183.728598,317.897208 C184.209598,316.996208 184.132598,315.026208 183.991598,312.736208 L183.980598,312.554208 C183.962598,312.256208 183.945598,311.978208 183.932598,311.714208 C183.919598,311.450208 183.769598,311.213208 183.538598,311.089208 C183.305598,310.964208 183.025598,310.971208 182.799598,311.106208 C182.526598,311.269208 182.233598,311.442208 181.914598,311.627208 C179.929598,312.783208 178.247598,313.813208 177.768598,314.711208 C177.343598,315.505208 177.253598,316.419208 177.515598,317.283208 C177.777598,318.148208 178.359598,318.858208 179.153598,319.282208 L179.153598,319.282208 Z M179.091598,315.418208 C179.392598,314.853208 181.462598,313.628208 182.506598,313.019208 C182.579598,314.228208 182.707598,316.623208 182.405598,317.191208 C182.169598,317.634208 181.774598,317.957208 181.294598,318.103208 C180.814598,318.247208 180.305598,318.197208 179.860598,317.959208 C179.419598,317.725208 179.097598,317.330208 178.951598,316.849208 C178.805598,316.367208 178.854598,315.859208 179.091598,315.418208 L179.091598,315.418208 Z M168.689598,331.120208 C168.682598,330.851208 168.531598,330.606208 168.293598,330.479208 C168.056598,330.352208 167.768598,330.361208 167.540598,330.506208 C166.418598,331.210208 165.127598,331.973208 163.407598,332.975208 C158.757598,335.686208 153.486598,338.758208 152.079598,341.387208 C149.700598,345.838208 151.385598,351.397208 155.834598,353.776208 C157.163598,354.486208 158.651598,354.861208 160.139598,354.861208 C161.039598,354.861208 161.937598,354.727208 162.806598,354.462208 C165.147598,353.756208 167.071598,352.179208 168.222598,350.021208 C169.626598,347.399208 169.259598,341.325208 168.932598,335.929208 C168.809598,333.930208 168.725598,332.428208 168.689598,331.120208 L168.689598,331.120208 Z M166.899598,349.314208 C165.936598,351.117208 164.329598,352.436208 162.371598,353.026208 C160.440598,353.617208 158.327598,353.408208 156.542598,352.454208 C152.821598,350.464208 151.413598,345.816208 153.402598,342.094208 C154.608598,339.840208 160.130598,336.621208 164.162598,334.271208 C165.364598,333.570208 166.359598,332.985208 167.237598,332.454208 C167.282598,333.476208 167.350598,334.639208 167.437598,336.057208 C167.718598,340.702208 168.103598,347.065208 166.899598,349.314208 L166.899598,349.314208 Z M178.478598,344.646208 C178.464598,344.382208 178.312598,344.146208 178.080598,344.022208 C177.846598,343.900208 177.565598,343.907208 177.340598,344.044208 C177.120598,344.178208 176.885598,344.314208 176.635598,344.461208 L176.461598,344.563208 C174.476598,345.718208 172.794598,346.747208 172.315598,347.647208 C171.437598,349.288208 172.058598,351.339208 173.701598,352.220208 C174.190598,352.481208 174.740598,352.620208 175.290598,352.620208 C175.622598,352.620208 175.954598,352.571208 176.275598,352.474208 C177.140598,352.212208 177.851598,351.630208 178.275598,350.833208 C178.758598,349.928208 178.674598,347.874208 178.537598,345.674208 L178.478598,344.646208 L178.478598,344.646208 Z M176.952598,350.128208 C176.716598,350.569208 176.322598,350.893208 175.841598,351.038208 C175.360598,351.184208 174.850598,351.134208 174.409598,350.897208 C173.495598,350.408208 173.149598,349.267208 173.638598,348.353208 C173.939598,347.787208 176.004598,346.566208 177.051598,345.955208 C177.121598,347.095208 177.256598,349.557208 176.952598,350.128208 L176.952598,350.128208 Z M185.082598,327.447208 C185.042598,326.795208 185.008598,326.189208 184.978598,325.627208 C184.964598,325.363208 184.813598,325.128208 184.581598,325.004208 C184.350598,324.881208 184.070598,324.889208 183.843598,325.022208 C183.361598,325.312208 182.840598,325.618208 182.249598,325.960208 C178.952598,327.884208 175.928598,329.729208 175.155598,331.176208 C173.752598,333.802208 174.746598,337.083208 177.373598,338.490208 C178.158598,338.908208 179.038598,339.130208 179.916598,339.130208 C180.446598,339.130208 180.975598,339.051208 181.485598,338.896208 C182.864598,338.479208 184.000598,337.549208 184.684598,336.273208 C185.460598,334.821208 185.315598,331.270208 185.082598,327.447208 L185.082598,327.447208 Z M183.362598,335.565208 C182.868598,336.486208 182.047598,337.159208 181.050598,337.460208 C180.067598,337.762208 178.990598,337.652208 178.080598,337.167208 C176.183598,336.150208 175.465598,333.780208 176.478598,331.883208 C177.115598,330.691208 180.947598,328.456208 183.027598,327.243208 C183.205598,327.140208 183.379598,327.039208 183.549598,326.939208 C183.560598,327.135208 183.573598,327.334208 183.585598,327.538208 C183.730598,329.925208 184.001598,334.368208 183.362598,335.565208 L183.362598,335.565208 Z M171.761598,316.427208 C171.739598,316.045208 171.718598,315.687208 171.701598,315.344208 C171.688598,315.081208 171.538598,314.844208 171.306598,314.720208 C171.074598,314.595208 170.792598,314.604208 170.567598,314.737208 C170.194598,314.961208 169.789598,315.197208 169.358598,315.449208 C166.688598,317.005208 164.428598,318.387208 163.806598,319.549208 C163.261598,320.568208 163.145598,321.742208 163.482598,322.852208 C163.818598,323.961208 164.565598,324.872208 165.585598,325.418208 C166.216598,325.754208 166.921598,325.932208 167.626598,325.932208 C168.052598,325.932208 168.477598,325.868208 168.886598,325.744208 C169.993598,325.412208 170.904598,324.664208 171.453598,323.639208 C172.075598,322.477208 171.962598,319.714208 171.780598,316.746208 L171.761598,316.427208 L171.761598,316.427208 Z M170.130598,322.932208 C169.771598,323.602208 169.176598,324.091208 168.452598,324.308208 C167.728598,324.526208 166.961598,324.451208 166.292598,324.095208 C165.625598,323.738208 165.138598,323.143208 164.917598,322.416208 C164.697598,321.690208 164.772598,320.923208 165.129598,320.256208 C165.601598,319.374208 168.648598,317.599208 170.114598,316.745208 C170.167598,316.714208 170.220598,316.684208 170.272598,316.653208 L170.283598,316.835208 C170.387598,318.527208 170.603598,322.048208 170.130598,322.932208 L170.130598,322.932208 Z" id="Fill-25" sketch:type="MSShapeGroup"></path>
        </g>
    </g>
</svg>
