<?xml version="1.0" encoding="UTF-8" standalone="no"?>
<svg width="47px" height="44px" viewBox="0 0 47 44" version="1.1" xmlns="http://www.w3.org/2000/svg" xmlns:xlink="http://www.w3.org/1999/xlink" xmlns:sketch="http://www.bohemiancoding.com/sketch/ns">
    <!-- Generator: Sketch 3.3.3 (12081) - http://www.bohemiancoding.com/sketch -->
    <title>Fill 3</title>
    <desc>Created with Sketch.</desc>
    <defs></defs>
    <g id="Page-1" stroke="none" stroke-width="1" fill="none" fill-rule="evenodd" sketch:type="MSPage">
        <g id="iPhone-6" sketch:type="MSArtboardGroup" transform="translate(-82.000000, -365.000000)" fill="rgba(255, 255, 255, 0.75)">
            <path d="M99.671,394.768 L99.963,395.671 C99.996,395.777 100.096,395.844 100.201,395.844 C100.226,395.844 100.251,395.84 100.277,395.832 C100.408,395.789 100.48,395.649 100.439,395.517 L100.3,395.087 L100.988,395.436 C101.023,395.454 101.062,395.463 101.1,395.463 C101.191,395.463 101.279,395.413 101.324,395.326 C101.386,395.203 101.338,395.053 101.215,394.99 L100.525,394.641 L100.955,394.497 C101.087,394.453 101.158,394.312 101.113,394.181 C101.07,394.05 100.927,393.98 100.797,394.023 L99.898,394.323 L99.519,394.131 L100.41,393.835 C100.542,393.791 100.612,393.651 100.568,393.519 C100.525,393.388 100.383,393.319 100.253,393.361 L98.892,393.812 L98.064,393.393 L98.84,392.882 L100.241,393.177 C100.259,393.18 100.275,393.182 100.293,393.182 C100.408,393.182 100.513,393.101 100.538,392.984 C100.566,392.848 100.479,392.716 100.344,392.687 L99.427,392.494 L99.783,392.26 L100.708,392.455 C100.725,392.459 100.742,392.461 100.76,392.461 C100.875,392.461 100.979,392.38 101.004,392.263 C101.033,392.128 100.946,391.995 100.81,391.967 L100.369,391.873 L101.013,391.447 C101.129,391.371 101.162,391.216 101.086,391.101 C101.009,390.985 100.851,390.956 100.738,391.03 L100.096,391.453 L100.183,391.012 C100.211,390.877 100.123,390.745 99.988,390.718 C99.843,390.693 99.721,390.78 99.693,390.914 L99.508,391.842 L99.152,392.076 L99.336,391.156 C99.363,391.022 99.275,390.89 99.14,390.863 C98.996,390.834 98.873,390.924 98.846,391.059 L98.564,392.464 L97.818,392.956 L97.818,392.064 L98.838,391.055 C98.935,390.958 98.935,390.799 98.84,390.701 C98.742,390.603 98.584,390.603 98.486,390.699 L97.818,391.361 L97.818,390.935 L98.492,390.268 C98.59,390.171 98.59,390.012 98.494,389.914 C98.396,389.816 98.238,389.816 98.14,389.912 L97.818,390.232 L97.818,389.457 C97.818,389.32 97.705,389.207 97.568,389.207 C97.429,389.207 97.318,389.32 97.318,389.457 L97.318,390.232 L96.996,389.912 C96.896,389.816 96.738,389.816 96.641,389.914 C96.546,390.012 96.546,390.171 96.644,390.268 L97.318,390.935 L97.318,391.36 L96.652,390.699 C96.552,390.603 96.395,390.603 96.299,390.701 C96.201,390.799 96.201,390.957 96.3,391.055 L97.318,392.064 L97.318,393.012 L96.471,392.584 L96.033,391.22 C95.991,391.089 95.855,391.02 95.717,391.059 C95.586,391.102 95.513,391.242 95.556,391.374 L95.844,392.266 L95.467,392.074 L95.176,391.171 C95.134,391.04 94.996,390.969 94.859,391.01 C94.729,391.053 94.656,391.194 94.699,391.325 L94.838,391.756 L94.148,391.407 C94.025,391.344 93.875,391.392 93.812,391.516 C93.75,391.639 93.799,391.789 93.921,391.852 L94.609,392.201 L94.18,392.343 C94.049,392.387 93.978,392.528 94.021,392.659 C94.057,392.764 94.154,392.83 94.26,392.83 C94.286,392.83 94.312,392.826 94.338,392.818 L95.237,392.519 L95.617,392.71 L94.725,393.007 C94.594,393.051 94.523,393.193 94.566,393.323 C94.601,393.428 94.7,393.494 94.805,393.494 C94.83,393.494 94.857,393.49 94.884,393.482 L96.245,393.029 L97.072,393.449 L96.299,393.958 L94.895,393.663 C94.757,393.639 94.627,393.723 94.597,393.857 C94.57,393.992 94.656,394.124 94.792,394.154 L95.711,394.346 L95.353,394.581 L94.427,394.385 C94.288,394.354 94.16,394.443 94.133,394.577 C94.103,394.712 94.189,394.845 94.324,394.873 L94.766,394.968 L94.121,395.393 C94.006,395.469 93.974,395.624 94.051,395.74 C94.097,395.813 94.179,395.852 94.26,395.852 C94.307,395.852 94.354,395.838 94.396,395.811 L95.042,395.385 L94.954,395.828 C94.926,395.963 95.013,396.095 95.15,396.122 C95.167,396.125 95.183,396.127 95.199,396.127 C95.316,396.127 95.42,396.045 95.443,395.926 L95.631,394.998 L95.986,394.764 L95.801,395.684 C95.774,395.819 95.862,395.951 95.998,395.978 C96.013,395.981 96.03,395.983 96.046,395.983 C96.164,395.983 96.267,395.901 96.292,395.781 L96.574,394.376 L97.318,393.886 L97.318,394.78 L96.3,395.785 C96.203,395.882 96.201,396.04 96.299,396.139 C96.347,396.189 96.412,396.213 96.476,396.213 C96.539,396.213 96.603,396.189 96.652,396.141 L97.318,395.484 L97.318,395.909 L96.644,396.572 C96.546,396.669 96.545,396.827 96.641,396.926 C96.738,397.024 96.896,397.027 96.996,396.928 L97.318,396.611 L97.318,397.383 C97.318,397.521 97.429,397.633 97.568,397.633 C97.705,397.633 97.818,397.521 97.818,397.383 L97.818,396.611 L98.14,396.928 C98.189,396.977 98.252,397 98.316,397 C98.381,397 98.445,396.975 98.494,396.926 C98.592,396.827 98.59,396.669 98.492,396.572 L97.818,395.909 L97.818,395.483 L98.486,396.141 C98.584,396.237 98.742,396.238 98.84,396.139 C98.937,396.04 98.935,395.882 98.838,395.785 L97.818,394.78 L97.818,393.827 L98.666,394.258 L99.103,395.621 C99.136,395.728 99.236,395.795 99.342,395.795 C99.367,395.795 99.392,395.791 99.417,395.784 C99.549,395.741 99.621,395.601 99.579,395.469 L99.293,394.576 L99.671,394.768 L99.671,394.768 Z M110.992,404.121 L109.862,403.548 L110.597,403.303 C110.781,403.242 110.881,403.044 110.82,402.861 C110.759,402.678 110.558,402.574 110.378,402.639 L108.984,403.103 L108.318,402.764 L109.76,402.285 C109.943,402.225 110.043,402.027 109.982,401.843 C109.921,401.66 109.726,401.558 109.539,401.621 L107.439,402.319 L106.105,401.642 L107.351,400.82 L109.519,401.275 C109.543,401.28 109.568,401.281 109.592,401.281 C109.754,401.281 109.898,401.168 109.933,401.004 C109.972,400.815 109.851,400.629 109.663,400.589 L108.175,400.277 L108.8,399.865 L110.236,400.167 C110.26,400.172 110.285,400.174 110.308,400.174 C110.471,400.174 110.615,400.062 110.65,399.897 C110.689,399.707 110.568,399.522 110.381,399.482 L109.623,399.322 L110.677,398.626 C110.84,398.52 110.885,398.303 110.777,398.142 C110.672,397.98 110.453,397.937 110.293,398.042 L109.236,398.74 L109.388,397.98 C109.427,397.79 109.304,397.606 109.116,397.568 C108.921,397.527 108.741,397.653 108.703,397.841 L108.414,399.282 L107.791,399.694 L108.088,398.201 C108.127,398.012 108.004,397.827 107.814,397.79 C107.627,397.749 107.439,397.874 107.403,398.065 L106.969,400.235 L105.76,401.032 L105.76,399.584 L107.332,398.027 C107.469,397.89 107.471,397.668 107.334,397.531 C107.199,397.395 106.976,397.394 106.84,397.529 L105.76,398.598 L105.76,397.854 L106.804,396.82 C106.941,396.683 106.943,396.462 106.806,396.324 C106.671,396.187 106.45,396.187 106.312,396.321 L105.76,396.869 L105.76,395.602 C105.76,395.409 105.603,395.252 105.41,395.252 C105.217,395.252 105.06,395.409 105.06,395.602 L105.06,396.868 L104.51,396.321 C104.371,396.187 104.152,396.187 104.013,396.324 C103.879,396.461 103.879,396.683 104.016,396.82 L105.06,397.854 L105.06,398.598 L103.98,397.529 C103.842,397.394 103.621,397.395 103.484,397.531 C103.349,397.668 103.35,397.89 103.487,398.027 L105.06,399.584 L105.06,401.113 L103.699,400.421 L103.02,398.313 C102.961,398.128 102.769,398.027 102.58,398.087 C102.395,398.146 102.295,398.343 102.354,398.528 L102.82,399.975 L102.15,399.636 L101.701,398.238 C101.642,398.055 101.45,397.952 101.261,398.013 C101.078,398.071 100.976,398.269 101.035,398.453 L101.271,399.19 L100.144,398.617 C99.973,398.532 99.761,398.598 99.674,398.772 C99.587,398.944 99.654,399.155 99.828,399.242 L100.957,399.816 L100.221,400.061 C100.038,400.121 99.937,400.32 100,400.503 C100.049,400.65 100.185,400.743 100.332,400.742 C100.367,400.742 100.406,400.738 100.441,400.725 L101.834,400.261 L102.502,400.6 L101.058,401.078 C100.875,401.139 100.775,401.337 100.838,401.521 C100.886,401.667 101.023,401.76 101.17,401.76 C101.205,401.76 101.242,401.755 101.279,401.742 L103.379,401.045 L104.713,401.722 L103.467,402.544 L101.3,402.089 C101.107,402.047 100.926,402.171 100.885,402.36 C100.846,402.549 100.967,402.735 101.156,402.775 L102.644,403.087 L102.019,403.498 L100.583,403.196 C100.388,403.156 100.208,403.278 100.168,403.467 C100.129,403.656 100.25,403.842 100.439,403.882 L101.197,404.041 L100.14,404.738 C99.979,404.844 99.935,405.061 100.042,405.222 C100.109,405.324 100.221,405.379 100.334,405.379 C100.4,405.379 100.467,405.361 100.525,405.321 L101.583,404.624 L101.43,405.384 C101.391,405.573 101.513,405.758 101.703,405.796 C101.726,405.801 101.75,405.803 101.773,405.803 C101.937,405.803 102.082,405.689 102.115,405.523 L102.406,404.081 L103.029,403.67 L102.73,405.162 C102.693,405.352 102.816,405.536 103.006,405.573 C103.027,405.578 103.051,405.58 103.074,405.58 C103.237,405.58 103.384,405.466 103.417,405.299 L103.85,403.129 L105.06,402.331 L105.06,403.78 L103.487,405.337 C103.35,405.474 103.349,405.696 103.484,405.832 C103.621,405.971 103.842,405.971 103.98,405.835 L105.06,404.766 L105.06,405.512 L104.016,406.544 C103.879,406.681 103.879,406.902 104.013,407.039 C104.083,407.109 104.174,407.143 104.263,407.143 C104.351,407.143 104.441,407.11 104.51,407.042 L105.06,406.496 L105.06,407.762 C105.06,407.955 105.217,408.112 105.41,408.112 C105.603,408.112 105.76,407.955 105.76,407.762 L105.76,406.496 L106.312,407.042 C106.45,407.179 106.671,407.178 106.806,407.039 C106.943,406.902 106.941,406.68 106.804,406.544 L105.76,405.512 L105.76,404.766 L106.84,405.835 C106.908,405.903 106.996,405.936 107.086,405.936 C107.175,405.936 107.266,405.902 107.334,405.832 C107.471,405.696 107.469,405.474 107.332,405.337 L105.76,403.78 L105.76,402.251 L107.121,402.943 L107.8,405.051 C107.848,405.199 107.984,405.293 108.133,405.293 C108.168,405.293 108.203,405.288 108.24,405.277 C108.424,405.218 108.525,405.021 108.466,404.836 L108,403.389 L108.668,403.728 L109.117,405.125 C109.166,405.274 109.302,405.367 109.45,405.367 C109.486,405.367 109.521,405.363 109.558,405.351 C109.742,405.292 109.844,405.095 109.783,404.91 L109.547,404.174 L110.676,404.746 C110.725,404.772 110.779,404.784 110.833,404.784 C110.961,404.784 111.084,404.714 111.145,404.592 C111.233,404.42 111.164,404.209 110.992,404.121 L110.992,404.121 Z M116.353,394.641 L116.783,394.497 C116.914,394.453 116.986,394.312 116.941,394.181 C116.898,394.05 116.758,393.98 116.625,394.023 L115.726,394.323 L115.346,394.131 L116.238,393.835 C116.369,393.791 116.439,393.651 116.396,393.519 C116.353,393.388 116.213,393.319 116.08,393.361 L114.719,393.813 L113.892,393.394 L114.667,392.882 L116.066,393.177 C116.084,393.18 116.101,393.182 116.119,393.182 C116.234,393.182 116.338,393.101 116.363,392.984 C116.391,392.848 116.305,392.716 116.17,392.687 L115.254,392.494 L115.609,392.261 L116.535,392.456 C116.552,392.459 116.571,392.461 116.588,392.461 C116.703,392.461 116.807,392.38 116.833,392.263 C116.861,392.127 116.773,391.995 116.638,391.966 L116.197,391.873 L116.842,391.447 C116.957,391.371 116.99,391.216 116.914,391.101 C116.836,390.985 116.68,390.956 116.566,391.03 L115.92,391.456 L116.009,391.012 C116.035,390.876 115.947,390.744 115.812,390.718 C115.67,390.693 115.545,390.78 115.517,390.914 L115.334,391.843 L114.978,392.077 L115.163,391.156 C115.19,391.022 115.101,390.89 114.967,390.863 C114.822,390.834 114.699,390.924 114.672,391.059 L114.39,392.465 L113.645,392.956 L113.645,392.064 L114.664,391.055 C114.763,390.957 114.763,390.799 114.666,390.701 C114.569,390.603 114.41,390.603 114.312,390.699 L113.645,391.36 L113.645,390.935 L114.32,390.268 C114.418,390.171 114.418,390.012 114.321,389.914 C114.225,389.816 114.066,389.816 113.969,389.912 L113.645,390.232 L113.645,389.457 C113.645,389.32 113.533,389.207 113.395,389.207 C113.259,389.207 113.146,389.32 113.146,389.457 L113.146,390.232 L112.824,389.912 C112.724,389.816 112.566,389.816 112.471,389.914 C112.373,390.012 112.373,390.171 112.471,390.268 L113.146,390.935 L113.146,391.361 L112.478,390.699 C112.379,390.603 112.221,390.603 112.125,390.701 C112.027,390.799 112.027,390.958 112.127,391.055 L113.146,392.064 L113.146,393.013 L112.299,392.583 L111.861,391.221 C111.818,391.089 111.677,391.02 111.546,391.059 C111.414,391.101 111.342,391.242 111.385,391.373 L111.671,392.266 L111.29,392.072 L111.001,391.172 C110.959,391.04 110.817,390.969 110.687,391.01 C110.554,391.052 110.483,391.193 110.525,391.324 L110.663,391.754 L109.976,391.407 C109.855,391.344 109.703,391.392 109.64,391.516 C109.578,391.639 109.627,391.789 109.75,391.852 L110.437,392.201 L110.008,392.343 C109.878,392.387 109.806,392.529 109.85,392.659 C109.885,392.764 109.983,392.83 110.088,392.83 C110.113,392.83 110.14,392.826 110.167,392.818 L111.064,392.518 L111.443,392.71 L110.552,393.007 C110.422,393.051 110.351,393.193 110.395,393.323 C110.43,393.428 110.527,393.494 110.633,393.494 C110.658,393.494 110.685,393.49 110.712,393.482 L112.071,393.029 L112.9,393.449 L112.127,393.958 L110.722,393.663 C110.584,393.639 110.454,393.723 110.426,393.857 C110.398,393.992 110.484,394.124 110.62,394.154 L111.538,394.346 L111.18,394.582 L110.257,394.385 C110.115,394.354 109.988,394.443 109.961,394.577 C109.931,394.712 110.016,394.845 110.153,394.873 L110.594,394.968 L109.95,395.393 C109.834,395.469 109.802,395.624 109.879,395.74 C109.926,395.813 110.006,395.852 110.088,395.852 C110.135,395.852 110.182,395.838 110.225,395.811 L110.869,395.387 L110.779,395.828 C110.752,395.963 110.84,396.095 110.976,396.122 C110.992,396.125 111.01,396.127 111.025,396.127 C111.142,396.127 111.246,396.045 111.269,395.926 L111.457,394.999 L111.812,394.765 L111.627,395.684 C111.6,395.819 111.687,395.951 111.824,395.978 C111.84,395.981 111.857,395.983 111.873,395.983 C111.99,395.983 112.094,395.901 112.117,395.781 L112.4,394.378 L113.146,393.886 L113.146,394.78 L112.127,395.785 C112.029,395.882 112.027,396.04 112.125,396.139 C112.221,396.238 112.379,396.237 112.478,396.141 L113.146,395.483 L113.146,395.909 L112.471,396.572 C112.375,396.669 112.373,396.827 112.471,396.926 C112.566,397.024 112.724,397.027 112.824,396.928 L113.146,396.611 L113.146,397.383 C113.146,397.521 113.259,397.633 113.395,397.633 C113.533,397.633 113.645,397.521 113.645,397.383 L113.645,396.611 L113.969,396.928 C114.016,396.977 114.08,397 114.144,397 C114.209,397 114.273,396.975 114.321,396.926 C114.42,396.827 114.417,396.669 114.32,396.572 L113.645,395.909 L113.645,395.484 L114.312,396.141 C114.361,396.189 114.424,396.213 114.487,396.213 C114.552,396.213 114.617,396.189 114.666,396.139 C114.763,396.04 114.761,395.882 114.664,395.785 L113.645,394.78 L113.645,393.829 L114.492,394.258 L114.93,395.621 C114.963,395.728 115.062,395.795 115.168,395.795 C115.193,395.795 115.219,395.791 115.244,395.784 C115.375,395.741 115.447,395.601 115.406,395.469 L115.119,394.576 L115.498,394.768 L115.789,395.671 C115.822,395.777 115.921,395.844 116.027,395.844 C116.052,395.844 116.078,395.84 116.104,395.832 C116.234,395.789 116.306,395.649 116.265,395.517 L116.125,395.086 L116.816,395.436 C116.851,395.454 116.891,395.463 116.929,395.463 C117.019,395.463 117.108,395.413 117.152,395.326 C117.215,395.203 117.166,395.053 117.042,394.99 L116.353,394.641 L116.353,394.641 Z M122.935,377.161 C122.939,377.034 122.943,376.906 122.943,376.778 C122.943,370.284 117.658,365 111.164,365 C107.23,365 103.555,366.984 101.379,370.229 C99.9,369.234 98.142,368.694 96.349,368.694 C91.551,368.694 87.617,372.468 87.367,377.28 C84.09,378.83 82,382.203 82,386.01 C82,391.293 86.094,395.592 91.127,395.592 L91.627,395.592 C92.041,395.592 92.377,395.256 92.377,394.842 C92.377,394.428 92.041,394.092 91.627,394.092 L91.127,394.092 C86.921,394.092 83.5,390.466 83.5,386.01 C83.5,382.694 85.465,379.663 88.388,378.468 C88.671,378.353 88.85,377.994 88.85,377.69 C88.85,373.556 92.215,370.194 96.349,370.194 C98.083,370.194 99.773,370.798 101.111,371.897 C101.281,372.036 101.506,372.097 101.722,372.054 C101.941,372.014 102.129,371.88 102.238,371.689 C104.066,368.488 107.486,366.5 111.164,366.5 C116.832,366.5 121.442,371.111 121.442,376.778 C121.442,377.056 121.429,377.326 121.406,377.596 C121.379,377.933 121.58,378.246 121.899,378.362 C124.986,379.48 127.06,382.553 127.06,386.01 C127.06,390.466 123.638,394.092 119.435,394.092 L118.933,394.092 C118.519,394.092 118.183,394.428 118.183,394.842 C118.183,395.256 118.519,395.592 118.933,395.592 L119.435,395.592 C124.467,395.592 128.56,391.293 128.56,386.01 C128.56,382.121 126.322,378.637 122.935,377.161 L122.935,377.161 Z M102.109,387.967 C102.046,388.09 102.096,388.24 102.219,388.303 L102.672,388.533 L102.433,388.613 C102.304,388.656 102.232,388.797 102.275,388.929 C102.31,389.034 102.408,389.1 102.513,389.1 C102.539,389.1 102.566,389.096 102.592,389.087 L103.3,388.852 L103.484,388.946 L102.875,389.148 C102.745,389.192 102.674,389.332 102.717,389.464 C102.752,389.569 102.85,389.635 102.954,389.635 C102.98,389.635 103.008,389.631 103.033,389.622 L104.113,389.264 L104.689,389.557 L104.152,389.911 L103.038,389.677 C102.896,389.655 102.77,389.737 102.741,389.87 C102.713,390.006 102.799,390.138 102.933,390.167 L103.564,390.299 L103.388,390.415 L102.662,390.26 C102.529,390.233 102.392,390.317 102.365,390.451 C102.336,390.587 102.421,390.72 102.557,390.748 L102.804,390.801 L102.378,391.082 C102.263,391.158 102.23,391.314 102.306,391.429 C102.355,391.502 102.433,391.541 102.515,391.541 C102.562,391.541 102.611,391.528 102.653,391.5 L103.075,391.222 L103.025,391.462 C102.999,391.598 103.086,391.73 103.221,391.757 C103.237,391.76 103.254,391.762 103.27,391.762 C103.388,391.762 103.492,391.68 103.516,391.562 L103.664,390.833 L103.838,390.718 L103.713,391.348 C103.686,391.484 103.774,391.615 103.909,391.642 C103.926,391.645 103.942,391.647 103.958,391.647 C103.998,391.647 104.032,391.626 104.066,391.609 C104.072,391.662 104.086,391.717 104.127,391.758 C104.176,391.808 104.24,391.832 104.304,391.832 C104.367,391.832 104.432,391.808 104.48,391.76 L104.935,391.31 L104.935,391.519 L104.406,392.041 C104.308,392.138 104.306,392.296 104.404,392.395 C104.501,392.493 104.66,392.493 104.758,392.397 L104.935,392.221 L104.935,392.729 C104.935,392.866 105.047,392.979 105.185,392.979 C105.322,392.979 105.435,392.866 105.435,392.729 L105.435,392.221 L105.612,392.397 C105.662,392.445 105.725,392.469 105.789,392.469 C105.853,392.469 105.917,392.445 105.967,392.395 C106.064,392.296 106.062,392.138 105.965,392.041 L105.435,391.519 L105.435,391.309 L105.894,391.76 C105.992,391.859 106.15,391.855 106.248,391.758 C106.346,391.659 106.344,391.501 106.246,391.405 L105.435,390.607 L105.435,389.935 L106.031,390.237 L106.381,391.321 C106.414,391.427 106.513,391.494 106.619,391.494 C106.644,391.494 106.67,391.49 106.696,391.483 C106.826,391.44 106.898,391.299 106.857,391.167 L106.659,390.556 L106.844,390.65 L107.074,391.361 C107.109,391.466 107.207,391.533 107.312,391.533 C107.338,391.533 107.363,391.53 107.388,391.522 C107.519,391.479 107.592,391.338 107.55,391.206 L107.473,390.969 L107.927,391.199 C107.963,391.218 108.002,391.227 108.041,391.227 C108.132,391.227 108.219,391.177 108.263,391.09 C108.325,390.967 108.277,390.817 108.154,390.754 L107.699,390.524 L107.937,390.445 C108.068,390.402 108.138,390.26 108.096,390.129 C108.052,389.997 107.908,389.926 107.781,389.97 L107.071,390.204 L106.886,390.111 L107.496,389.907 C107.627,389.863 107.699,389.722 107.654,389.591 C107.611,389.46 107.469,389.39 107.338,389.433 L106.258,389.792 L105.683,389.5 L106.221,389.146 L107.336,389.378 C107.351,389.381 107.369,389.383 107.386,389.383 C107.502,389.383 107.605,389.302 107.631,389.184 C107.659,389.049 107.572,388.916 107.437,388.888 L106.809,388.757 L106.986,388.642 L107.713,388.795 C107.73,388.799 107.748,388.801 107.765,388.801 C107.881,388.801 107.984,388.72 108.009,388.603 C108.038,388.468 107.951,388.335 107.816,388.307 L107.571,388.255 L107.996,387.975 C108.111,387.899 108.144,387.743 108.068,387.628 C107.992,387.512 107.834,387.484 107.721,387.557 L107.296,387.837 L107.344,387.594 C107.371,387.459 107.283,387.327 107.148,387.3 C107.008,387.273 106.881,387.361 106.854,387.496 L106.709,388.225 L106.535,388.339 L106.66,387.709 C106.687,387.574 106.6,387.443 106.465,387.415 C106.406,387.405 106.354,387.423 106.308,387.446 C106.301,387.393 106.288,387.338 106.248,387.297 C106.15,387.197 105.992,387.199 105.894,387.295 L105.435,387.749 L105.435,387.541 L105.965,387.016 C106.062,386.918 106.062,386.76 105.967,386.662 C105.87,386.563 105.711,386.565 105.612,386.66 L105.435,386.837 L105.435,386.328 C105.435,386.191 105.322,386.078 105.185,386.078 C105.047,386.078 104.935,386.191 104.935,386.328 L104.935,386.837 L104.758,386.66 C104.66,386.565 104.501,386.563 104.404,386.662 C104.307,386.76 104.307,386.918 104.406,387.016 L104.935,387.541 L104.935,387.747 L104.48,387.295 C104.383,387.199 104.224,387.197 104.127,387.297 C104.029,387.395 104.029,387.553 104.129,387.651 L104.935,388.451 L104.935,389.121 L104.34,388.819 L103.994,387.737 C103.951,387.605 103.812,387.534 103.679,387.574 C103.547,387.616 103.475,387.757 103.516,387.889 L103.713,388.501 L103.525,388.407 L103.299,387.697 C103.256,387.566 103.115,387.496 102.983,387.535 C102.851,387.578 102.779,387.719 102.822,387.85 L102.898,388.088 L102.445,387.858 C102.322,387.795 102.172,387.844 102.109,387.967 L102.109,387.967 Z M105.435,388.452 L106.141,387.753 L105.946,388.727 L105.435,389.065 L105.435,388.452 L105.435,388.452 Z M104.935,390.607 L104.232,391.302 L104.425,390.33 L104.935,389.994 L104.935,390.607 L104.935,390.607 Z" id="Fill-3" sketch:type="MSShapeGroup"></path>
        </g>
    </g>
</svg>
