<?xml version="1.0" encoding="UTF-8" standalone="no"?>
<svg width="47px" height="47px" viewBox="0 0 47 47" version="1.1" xmlns="http://www.w3.org/2000/svg" xmlns:xlink="http://www.w3.org/1999/xlink" xmlns:sketch="http://www.bohemiancoding.com/sketch/ns">
    <!-- Generator: Sketch 3.3.3 (12081) - http://www.bohemiancoding.com/sketch -->
    <title>Fill 27</title>
    <desc>Created with Sketch.</desc>
    <defs></defs>
    <g id="Page-1" stroke="none" stroke-width="1" fill="none" fill-rule="evenodd" sketch:type="MSPage">
        <g id="iPhone-6" sketch:type="MSArtboardGroup" transform="translate(-254.000000, -310.000000)" fill="rgba(255, 255, 255, 0.75)">
            <path d="M269.901,321.283 C270.037,321.533 270.295,321.674 270.56,321.674 C270.682,321.674 270.805,321.645 270.918,321.583 C271.282,321.385 271.417,320.93 271.219,320.566 L267.174,313.13 C266.976,312.766 266.52,312.633 266.157,312.829 C265.793,313.028 265.658,313.483 265.856,313.847 L269.901,321.283 L269.901,321.283 Z M257.716,322.08 L264.92,326.528 C265.043,326.603 265.179,326.639 265.314,326.639 C265.565,326.639 265.811,326.513 265.953,326.283 C266.17,325.931 266.061,325.468 265.708,325.25 L258.504,320.803 C258.152,320.587 257.689,320.695 257.472,321.048 C257.254,321.4 257.364,321.863 257.716,322.08 L257.716,322.08 Z M277.279,319.965 C277.693,319.965 278.029,319.629 278.029,319.215 L278.029,310.75 C278.029,310.336 277.693,310 277.279,310 C276.865,310 276.529,310.336 276.529,310.75 L276.529,319.215 C276.529,319.629 276.865,319.965 277.279,319.965 L277.279,319.965 Z M263.967,333.28 C263.967,332.866 263.631,332.53 263.217,332.53 L254.75,332.53 C254.336,332.53 254,332.866 254,333.28 C254,333.694 254.336,334.03 254.75,334.03 L263.217,334.03 C263.631,334.03 263.967,333.694 263.967,333.28 L263.967,333.28 Z M288.975,326.917 C289.111,327.167 289.369,327.309 289.634,327.309 C289.755,327.309 289.878,327.28 289.992,327.218 L297.429,323.175 C297.793,322.977 297.928,322.522 297.729,322.158 C297.532,321.794 297.076,321.661 296.712,321.857 L289.275,325.9 C288.912,326.098 288.777,326.553 288.975,326.917 L288.975,326.917 Z M284.274,321.952 C284.396,322.029 284.533,322.065 284.667,322.065 C284.918,322.065 285.164,321.939 285.306,321.709 L289.755,314.506 C289.973,314.154 289.864,313.691 289.511,313.474 C289.16,313.255 288.698,313.365 288.479,313.717 L284.03,320.92 C283.812,321.273 283.921,321.736 284.274,321.952 L284.274,321.952 Z M296.843,344.48 L289.638,340.031 C289.287,339.813 288.824,339.921 288.606,340.274 C288.388,340.626 288.497,341.089 288.85,341.306 L296.055,345.755 C296.177,345.831 296.313,345.868 296.448,345.868 C296.699,345.868 296.945,345.742 297.087,345.512 C297.305,345.16 297.195,344.697 296.843,344.48 L296.843,344.48 Z M265.583,339.64 C265.386,339.277 264.93,339.144 264.566,339.339 L257.129,343.382 C256.766,343.58 256.631,344.036 256.829,344.4 C256.965,344.65 257.223,344.791 257.488,344.791 C257.609,344.791 257.732,344.762 257.846,344.701 L265.283,340.658 C265.647,340.459 265.782,340.004 265.583,339.64 L265.583,339.64 Z M277.279,346.592 C276.865,346.592 276.529,346.928 276.529,347.342 L276.529,355.809 C276.529,356.223 276.865,356.559 277.279,356.559 C277.693,356.559 278.029,356.223 278.029,355.809 L278.029,347.342 C278.029,346.928 277.693,346.592 277.279,346.592 L277.279,346.592 Z M299.808,332.53 L291.343,332.53 C290.929,332.53 290.593,332.866 290.593,333.28 C290.593,333.694 290.929,334.03 291.343,334.03 L299.808,334.03 C300.223,334.03 300.558,333.694 300.558,333.28 C300.558,332.866 300.223,332.53 299.808,332.53 L299.808,332.53 Z M284.656,345.275 C284.459,344.911 284.002,344.778 283.639,344.974 C283.275,345.172 283.141,345.627 283.339,345.992 L287.383,353.431 C287.519,353.681 287.777,353.823 288.042,353.823 C288.163,353.823 288.287,353.793 288.4,353.732 C288.764,353.534 288.899,353.078 288.701,352.714 L284.656,345.275 L284.656,345.275 Z M270.284,344.607 C269.933,344.389 269.47,344.497 269.251,344.85 L264.803,352.053 C264.585,352.406 264.695,352.869 265.047,353.085 C265.17,353.161 265.306,353.198 265.441,353.198 C265.692,353.198 265.937,353.072 266.079,352.842 L270.528,345.639 C270.745,345.286 270.636,344.824 270.284,344.607 L270.284,344.607 Z M286.469,333.278 C286.469,328.21 282.347,324.088 277.28,324.088 C272.212,324.088 268.089,328.21 268.089,333.278 C268.089,338.346 272.212,342.469 277.28,342.469 C282.347,342.469 286.469,338.346 286.469,333.278 L286.469,333.278 Z M269.589,333.278 C269.589,329.037 273.039,325.588 277.28,325.588 C281.52,325.588 284.969,329.037 284.969,333.278 C284.969,337.519 281.52,340.969 277.28,340.969 C273.039,340.969 269.589,337.519 269.589,333.278 L269.589,333.278 Z" id="Fill-27" sketch:type="MSShapeGroup"></path>
        </g>
    </g>
</svg>
