<?xml version="1.0" encoding="UTF-8" standalone="no"?>
<svg width="31px" height="44px" viewBox="0 0 31 44" version="1.1" xmlns="http://www.w3.org/2000/svg" xmlns:xlink="http://www.w3.org/1999/xlink" xmlns:sketch="http://www.bohemiancoding.com/sketch/ns">
    <!-- Generator: Sketch 3.3.3 (12081) - http://www.bohemiancoding.com/sketch -->
    <title>Fill 24</title>
    <desc>Created with Sketch.</desc>
    <defs></defs>
    <g id="Page-1" stroke="none" stroke-width="1" fill="none" fill-rule="evenodd" sketch:type="MSPage">
        <g id="iPhone-6" sketch:type="MSArtboardGroup" transform="translate(-202.000000, -432.000000)" fill="rgba(255, 255, 255, 0.75)">
            <path d="M232.09241,432.407 C231.96441,432.157 231.70641,432 231.42541,432 L212.28341,432 C211.95741,432 211.66941,432.21 211.56941,432.52 L205.02941,452.797 C204.95641,453.026 204.99641,453.276 205.13741,453.469 C205.27841,453.663 205.50341,453.777 205.74341,453.777 L209.50841,453.777 L202.04541,474.197 C201.92141,474.538 202.05841,474.918 202.37041,475.102 C202.48941,475.172 202.62041,475.205 202.75041,475.205 C202.96241,475.205 203.17141,475.115 203.31841,474.945 L224.71041,450.139 C224.90141,449.916 224.94641,449.603 224.82341,449.336 C224.70141,449.069 224.43541,448.899 224.14241,448.899 L220.76541,448.899 L232.03441,433.188 C232.19841,432.959 232.22041,432.657 232.09241,432.407 L232.09241,432.407 Z M218.69441,449.211 C218.53041,449.44 218.50841,449.741 218.63741,449.991 C218.76541,450.241 219.02241,450.399 219.30441,450.399 L222.50441,450.399 L204.86441,470.855 L211.28641,453.285 C211.37041,453.055 211.33641,452.798 211.19641,452.598 C211.05541,452.397 210.82641,452.277 210.58141,452.277 L206.77341,452.277 L212.82941,433.5 L229.96441,433.5 L218.69441,449.211 L218.69441,449.211 Z" id="Fill-24" sketch:type="MSShapeGroup"></path>
        </g>
    </g>
</svg>
